<?xml version="1.0" encoding="UTF-8" standalone="no"?>
<svg
   xmlns:dc="http://purl.org/dc/elements/1.1/"
   xmlns:cc="http://creativecommons.org/ns#"
   xmlns:rdf="http://www.w3.org/1999/02/22-rdf-syntax-ns#"
   xmlns:svg="http://www.w3.org/2000/svg"
   xmlns="http://www.w3.org/2000/svg"
   xmlns:sodipodi="http://sodipodi.sourceforge.net/DTD/sodipodi-0.dtd"
   xmlns:inkscape="http://www.inkscape.org/namespaces/inkscape"
   version="1.1"
   x="0"
   y="0"
   width="202"
   height="77"
   viewBox="0 0 202 77"
   id="svg2"
   inkscape:version="0.48.5 r10040"
   sodipodi:docname="NeXusLogo.svg">
  <metadata
     id="metadata23">
    <rdf:RDF>
      <cc:Work
         rdf:about="">
        <dc:format>image/svg+xml</dc:format>
        <dc:type
           rdf:resource="http://purl.org/dc/dcmitype/StillImage" />
        <dc:title></dc:title>
      </cc:Work>
    </rdf:RDF>
  </metadata>
  <defs
     id="defs21" />
  <sodipodi:namedview
     pagecolor="#ffffff"
     bordercolor="#666666"
     borderopacity="1"
     objecttolerance="10"
     gridtolerance="10"
     guidetolerance="10"
     inkscape:pageopacity="0"
     inkscape:pageshadow="2"
     inkscape:window-width="1280"
     inkscape:window-height="780"
     id="namedview19"
     showgrid="false"
     inkscape:document-units="mm"
     units="mm"
     fit-margin-top="0"
     fit-margin-left="0"
     fit-margin-right="0"
     fit-margin-bottom="0"
     inkscape:zoom="3.5979069"
     inkscape:cx="101"
     inkscape:cy="-1.4821216"
     inkscape:window-x="-4"
     inkscape:window-y="-3"
     inkscape:window-maximized="1"
     inkscape:current-layer="layer1" />
  <g
     inkscape:groupmode="layer"
     id="layer1"
     inkscape:label="Layer"
     style="display:inline"
     transform="translate(19.455009,-34.309925)">
    <rect
       transform="translate(-19.455009,34.309925)"
       y="15.940412"
       x="12.912243"
       height="50.992416"
       width="189.30661"
       id="rect3947"
       style="fill:#ffffff;stroke:none;stroke-width:0.35433071999999999;stroke-miterlimit:4;stroke-opacity:1;stroke-dasharray:none;stroke-dashoffset:0;fill-opacity:1" />
    <rect
       style="fill:#cfcfcf;stroke:none;stroke-width:0.35433071999999999;stroke-miterlimit:4;stroke-opacity:1;stroke-dasharray:none;stroke-dashoffset:0;fill-opacity:1"
       id="rect3156"
       width="168.95341"
       height="76.160347"
       x="0"
       y="-0.035752978"
       transform="translate(-19.455009,34.309925)" />
    <rect
       style="fill:#a96ce8;stroke:none;stroke-width:0.35433071999999999;stroke-miterlimit:4;stroke-opacity:1;stroke-dasharray:none;stroke-dashoffset:0;fill-opacity:0.39130434"
       id="rect3158"
       width="189.30661"
       height="50.992416"
       x="12.912243"
       y="15.940412"
       transform="translate(-19.455009,34.309925)" />
    <g
       style="fill:#7a1191;fill-opacity:1;stroke:#7a1191;stroke-opacity:1"
       id="g3935"
       transform="translate(-0.27793938,0.27793938)">
      <path
         style="fill:#7a1191;fill-opacity:1;stroke:#7a1191;stroke-opacity:1"
         inkscape:connector-curvature="0"
         id="path3937"
         d="m 8.0786215,93.815048 c -2.3790565,0 -2.3790565,-0.699723 -2.3790565,-10.705754 0,-10.635782 0.4198335,-18.402702 0.4198335,-20.152009 l 0.1399445,0 19.872119,31.69743 c 0.839667,1.329473 1.259501,1.53939 1.749306,1.53939 0.279889,0 0.699723,-0.419834 0.90964,-1.259501 1.609361,-12.105199 2.588973,-23.440704 3.638557,-31.977319 0.699722,-6.787308 0.909639,-7.976836 2.449028,-7.976836 0.279889,0 1.259501,0.06997 1.609362,0.06997 0.489806,0 0.559778,-0.349861 0.559778,-0.839667 0,-0.559778 -0.06997,-0.839667 -0.489806,-0.839667 -1.88925,0 -3.988418,0.209917 -5.877669,0.209917 -1.959223,0 -4.478224,-0.209917 -6.507419,-0.209917 -0.559778,0 -0.699722,0.209917 -0.699722,0.839667 0,0.62975 0.279889,0.769695 0.839667,0.769695 l 1.749306,0 c 2.379056,0 2.379056,2.099167 2.379056,10.705754 0,6.437447 -0.979611,18.612619 -1.119556,21.901315 l -0.139944,0 L 7.2389545,55.050421 c -0.6997225,-1.049584 -0.839667,-1.469417 -1.679334,-1.469417 -0.8396671,0 -0.9796116,0.419833 -0.9796116,1.189528 0,0.909639 -1.5393895,21.061648 -2.8688622,31.067679 -0.90963929,6.787309 -1.18952829,7.976837 -3.1487513,7.976837 -0.279889,0 -1.2595005,-0.06997 -1.6093618,-0.06997 -0.4898057,0 -0.559778,0.349861 -0.559778,0.839667 0,0.559778 0.069972,0.839667 0.4898058,0.839667 2.0991675,0 4.478224,-0.209917 6.5773915,-0.209917 1.9592231,0 4.4782241,0.209917 6.5074193,0.209917 0.5597778,0 0.6997228,-0.209917 0.6997228,-0.839667 0,-0.629751 -0.279889,-0.769695 -0.8396673,-0.769695 z" />
      <path
         style="fill:#7a1191;fill-opacity:1;stroke:#7a1191;stroke-opacity:1"
         inkscape:connector-curvature="0"
         id="path3939"
         d="m 51.911774,96.194105 c 4.758113,0 10.56581,-4.478225 10.56581,-5.107975 0,-0.209917 -0.559778,-0.769695 -0.769695,-0.769695 -0.559778,0 -1.749306,1.679334 -4.828085,1.679334 -6.997225,0 -8.746531,-5.038002 -8.746531,-9.866087 0,-0.62975 0.06997,-1.119556 0.139944,-1.679334 0.629751,-0.06997 1.189529,-0.06997 1.819279,-0.06997 3.638557,0 9.936059,0.559778 11.19556,0.62975 1.539389,-1.329473 3.498612,-2.379056 3.498612,-2.79889 0,-0.209917 -0.06997,-0.279889 -0.279889,-0.279889 -0.419833,0 -3.778501,0.279889 -6.22753,0.279889 l -5.247919,0 0,-0.139944 c 5.737725,-3.428641 11.545422,-5.457836 11.545422,-10.775727 0,-2.379057 -1.679334,-3.288696 -3.70853,-3.288696 -7.906864,0 -17.633007,8.046809 -17.633007,22.601037 0,5.807697 3.288696,9.586199 8.676559,9.586199 z M 55.900193,67.43551 c 1.749306,0 2.79889,0.979611 2.79889,2.239112 0,4.198335 -5.737725,7.277114 -10.285921,8.956448 0.209917,-1.259501 2.16914,-11.19556 7.487031,-11.19556 z" />
      <path
         style="fill:#7a1191;fill-opacity:1;stroke:#7a1191;stroke-opacity:1"
         inkscape:connector-curvature="0"
         id="path3941"
         d="m 73.221201,95.704299 c 1.679334,0 3.358668,-0.209917 5.107974,-0.209917 2.588974,0 5.177947,0.209917 7.76692,0.209917 0.489806,0 0.699723,-0.279889 0.699723,-0.839667 0,-0.629751 -0.209917,-0.839667 -0.699723,-0.839667 -0.349861,0 -1.329473,0.06997 -1.819278,0.06997 -1.259501,0 -1.609362,-0.489806 -1.609362,-1.049584 0,-1.329473 7.277114,-12.874894 8.536615,-14.904089 0.559778,1.2595 5.59778,18.052841 6.01761,18.052841 0.41984,0 1.74931,-0.139945 2.37906,-0.279889 1.18953,-0.279889 2.37906,-0.419834 3.42864,-0.419834 0.90964,0 1.81928,0 2.44903,0.06997 0.76969,0.06997 1.53939,0.139945 1.7493,0.139945 0.41984,0 0.62976,-0.419834 0.62976,-0.909639 0,-0.489806 -0.20992,-0.629751 -0.62976,-0.699723 -1.46941,-0.279889 -3.98841,-0.279889 -4.68814,-1.749306 C 99.88063,87.027736 95.26246,76.671843 94.982571,74.502703 96.94179,71.00409 110.51641,55.890084 110.51641,54.280722 c 0,-0.349861 -0.41983,-0.62975 -0.76969,-0.62975 -0.13995,0 -1.18953,0.06997 -2.65895,0.06997 -1.46942,0.06997 -3.42864,0.139945 -5.38786,0.139945 -0.41984,0 -0.90964,-0.06997 -1.32948,-0.139945 -0.4898,0 -0.90963,-0.06997 -1.32947,-0.06997 -0.27989,0 -0.55978,0.419834 -0.55978,0.839667 0,0.559778 0.27989,0.839667 0.55978,0.839667 0.55978,0 1.53939,0 2.16914,-0.06997 0.83967,0 1.67934,0.559778 1.67934,1.609362 0,1.749306 -2.58898,5.457835 -8.676564,15.183978 -1.119556,-3.42864 -4.898057,-16.16359 -5.527808,-18.402702 -1.189528,0 -3.778501,0.209917 -5.527807,0.209917 -1.609362,0 -3.70853,-0.209917 -4.128363,-0.209917 -0.419834,0 -0.699723,0.209917 -0.699723,0.909639 0,0.489806 0.209917,0.629751 0.629751,0.699723 1.049583,0.279889 2.658945,0.279889 3.42864,1.749306 3.288696,6.857281 7.906864,18.33273 7.906864,19.032452 -1.119556,1.469418 -2.239112,2.938835 -5.177946,6.297503 -6.437447,7.417058 -9.096393,11.755338 -11.19556,11.755338 -0.279889,0 -0.559778,-0.06997 -0.839667,-0.06997 -0.419834,0 -0.559778,0.349861 -0.559778,0.839667 0,0.559778 0.06997,0.839667 0.699722,0.839667 z" />
      <path
         style="fill:#7a1191;fill-opacity:1;stroke:#7a1191;stroke-opacity:1"
         inkscape:connector-curvature="0"
         id="path3943"
         d="m 139.05559,64.566647 c -0.27989,8.466643 -8.39667,26.519483 -12.24515,26.519483 -1.32947,0 -1.81928,-1.2595 -1.81928,-3.848474 0,-5.457835 4.12837,-22.601037 4.12837,-22.671009 0,-0.209917 -0.13995,-0.559778 -0.41984,-0.559778 -0.27989,0 -0.62975,0 -2.09916,0.139945 -1.46942,0.139944 -2.72892,0.209916 -3.63856,0.209916 -0.62975,0 -1.32947,0 -1.60936,-0.06997 -0.27989,-0.06997 -0.41984,-0.06997 -0.55978,-0.06997 -0.34986,0 -0.55978,0.209917 -0.55978,0.839667 0,0.559778 0.20992,0.769695 0.55978,0.769695 0.27989,0 0.83967,-0.139945 1.11956,-0.139945 0.83966,0 1.2595,0.489806 1.2595,1.959223 0,5.807697 -3.07878,22.461093 -3.07878,24.770177 0,2.029195 0.41983,3.778502 2.30908,3.778502 6.08759,0 13.22476,-14.27434 14.48426,-16.933285 l 0.13994,0.139944 c -0.62975,5.177947 -1.7493,10.775727 -1.7493,16.16359 0,0.419834 0.07,0.629751 0.34986,0.629751 0.27989,0 6.64736,-1.679334 9.09639,-1.679334 0.76969,0 0.83967,-0.349862 0.83967,-0.979612 0,-0.279889 -0.20992,-0.62975 -0.55978,-0.62975 -0.7697,0 -0.97961,0.209916 -1.95922,0.209916 -2.30909,0 -2.93884,-2.239112 -2.93884,-6.577391 0,-8.186753 3.00881,-20.431897 3.42864,-22.181204 z" />
      <path
         style="fill:#7a1191;fill-opacity:1;stroke:#7a1191;stroke-opacity:1"
         inkscape:connector-curvature="0"
         id="path3945"
         d="m 160.35847,96.194105 c 7.13717,0 13.08481,-5.527808 13.08481,-10.985644 0,-8.046809 -12.595,-7.417058 -12.595,-13.854505 0,-2.239112 1.7493,-4.688141 5.31789,-4.688141 3.35867,0 5.87767,1.679334 5.87767,3.148751 0,0.839667 -0.62975,1.609362 -0.62975,2.099168 0,0.279889 0.55978,0.419833 0.97961,0.419833 0.4898,0 0.34986,-0.699722 0.4898,-1.189528 0.41984,-2.449029 2.72892,-5.947642 2.72892,-6.577392 0,-0.559778 -0.83966,-0.559778 -3.42864,-0.559778 -7.62697,0 -16.02364,3.008807 -16.02364,10.705755 0,2.728917 1.11955,3.848473 3.42864,5.457835 4.2683,2.79889 9.37628,4.268307 9.37628,8.536615 0,3.008806 -2.72892,4.828085 -5.59778,4.828085 -3.70853,0 -8.25673,-2.588973 -8.25673,-4.548196 0,-0.839667 0.69973,-2.938835 0.69973,-3.358668 0,-0.419834 -0.20992,-0.489806 -0.69973,-0.489806 -0.90964,0 -0.90964,0.559778 -0.90964,1.469417 0,3.008807 -2.23911,6.647364 -2.23911,7.13717 0,0.979611 4.75811,2.449029 8.39667,2.449029 z" />
    </g>
    <g
       id="g3928"
       style="fill:#000080;fill-opacity:1">
      <path
         d="m 8.0786215,93.815048 c -2.3790565,0 -2.3790565,-0.699723 -2.3790565,-10.705754 0,-10.635782 0.4198335,-18.402702 0.4198335,-20.152009 l 0.1399445,0 19.872119,31.69743 c 0.839667,1.329473 1.259501,1.53939 1.749306,1.53939 0.279889,0 0.699723,-0.419834 0.90964,-1.259501 1.609361,-12.105199 2.588973,-23.440704 3.638557,-31.977319 0.699722,-6.787308 0.909639,-7.976836 2.449028,-7.976836 0.279889,0 1.259501,0.06997 1.609362,0.06997 0.489806,0 0.559778,-0.349861 0.559778,-0.839667 0,-0.559778 -0.06997,-0.839667 -0.489806,-0.839667 -1.88925,0 -3.988418,0.209917 -5.877669,0.209917 -1.959223,0 -4.478224,-0.209917 -6.507419,-0.209917 -0.559778,0 -0.699722,0.209917 -0.699722,0.839667 0,0.62975 0.279889,0.769695 0.839667,0.769695 l 1.749306,0 c 2.379056,0 2.379056,2.099167 2.379056,10.705754 0,6.437447 -0.979611,18.612619 -1.119556,21.901315 l -0.139944,0 L 7.2389545,55.050421 c -0.6997225,-1.049584 -0.839667,-1.469417 -1.679334,-1.469417 -0.8396671,0 -0.9796116,0.419833 -0.9796116,1.189528 0,0.909639 -1.5393895,21.061648 -2.8688622,31.067679 -0.90963929,6.787309 -1.18952829,7.976837 -3.1487513,7.976837 -0.279889,0 -1.2595005,-0.06997 -1.6093618,-0.06997 -0.4898057,0 -0.559778,0.349861 -0.559778,0.839667 0,0.559778 0.069972,0.839667 0.4898058,0.839667 2.0991675,0 4.478224,-0.209917 6.5773915,-0.209917 1.9592231,0 4.4782241,0.209917 6.5074193,0.209917 0.5597778,0 0.6997228,-0.209917 0.6997228,-0.839667 0,-0.629751 -0.279889,-0.769695 -0.8396673,-0.769695 z"
         id="path7"
         inkscape:connector-curvature="0"
         style="fill:#000080;fill-opacity:1;stroke:none" />
      <path
         d="m 51.911774,96.194105 c 4.758113,0 10.56581,-4.478225 10.56581,-5.107975 0,-0.209917 -0.559778,-0.769695 -0.769695,-0.769695 -0.559778,0 -1.749306,1.679334 -4.828085,1.679334 -6.997225,0 -8.746531,-5.038002 -8.746531,-9.866087 0,-0.62975 0.06997,-1.119556 0.139944,-1.679334 0.629751,-0.06997 1.189529,-0.06997 1.819279,-0.06997 3.638557,0 9.936059,0.559778 11.19556,0.62975 1.539389,-1.329473 3.498612,-2.379056 3.498612,-2.79889 0,-0.209917 -0.06997,-0.279889 -0.279889,-0.279889 -0.419833,0 -3.778501,0.279889 -6.22753,0.279889 l -5.247919,0 0,-0.139944 c 5.737725,-3.428641 11.545422,-5.457836 11.545422,-10.775727 0,-2.379057 -1.679334,-3.288696 -3.70853,-3.288696 -7.906864,0 -17.633007,8.046809 -17.633007,22.601037 0,5.807697 3.288696,9.586199 8.676559,9.586199 z M 55.900193,67.43551 c 1.749306,0 2.79889,0.979611 2.79889,2.239112 0,4.198335 -5.737725,7.277114 -10.285921,8.956448 0.209917,-1.259501 2.16914,-11.19556 7.487031,-11.19556 z"
         id="path9"
         inkscape:connector-curvature="0"
         style="fill:#000080;fill-opacity:1;stroke:none" />
      <path
         d="m 73.221201,95.704299 c 1.679334,0 3.358668,-0.209917 5.107974,-0.209917 2.588974,0 5.177947,0.209917 7.76692,0.209917 0.489806,0 0.699723,-0.279889 0.699723,-0.839667 0,-0.629751 -0.209917,-0.839667 -0.699723,-0.839667 -0.349861,0 -1.329473,0.06997 -1.819278,0.06997 -1.259501,0 -1.609362,-0.489806 -1.609362,-1.049584 0,-1.329473 7.277114,-12.874894 8.536615,-14.904089 0.559778,1.2595 5.59778,18.052841 6.01761,18.052841 0.41984,0 1.74931,-0.139945 2.37906,-0.279889 1.18953,-0.279889 2.37906,-0.419834 3.42864,-0.419834 0.90964,0 1.81928,0 2.44903,0.06997 0.76969,0.06997 1.53939,0.139945 1.7493,0.139945 0.41984,0 0.62976,-0.419834 0.62976,-0.909639 0,-0.489806 -0.20992,-0.629751 -0.62976,-0.699723 -1.46941,-0.279889 -3.98841,-0.279889 -4.68814,-1.749306 C 99.88063,87.027736 95.26246,76.671843 94.982571,74.502703 96.94179,71.00409 110.51641,55.890084 110.51641,54.280722 c 0,-0.349861 -0.41983,-0.62975 -0.76969,-0.62975 -0.13995,0 -1.18953,0.06997 -2.65895,0.06997 -1.46942,0.06997 -3.42864,0.139945 -5.38786,0.139945 -0.41984,0 -0.90964,-0.06997 -1.32948,-0.139945 -0.4898,0 -0.90963,-0.06997 -1.32947,-0.06997 -0.27989,0 -0.55978,0.419834 -0.55978,0.839667 0,0.559778 0.27989,0.839667 0.55978,0.839667 0.55978,0 1.53939,0 2.16914,-0.06997 0.83967,0 1.67934,0.559778 1.67934,1.609362 0,1.749306 -2.58898,5.457835 -8.676564,15.183978 -1.119556,-3.42864 -4.898057,-16.16359 -5.527808,-18.402702 -1.189528,0 -3.778501,0.209917 -5.527807,0.209917 -1.609362,0 -3.70853,-0.209917 -4.128363,-0.209917 -0.419834,0 -0.699723,0.209917 -0.699723,0.909639 0,0.489806 0.209917,0.629751 0.629751,0.699723 1.049583,0.279889 2.658945,0.279889 3.42864,1.749306 3.288696,6.857281 7.906864,18.33273 7.906864,19.032452 -1.119556,1.469418 -2.239112,2.938835 -5.177946,6.297503 -6.437447,7.417058 -9.096393,11.755338 -11.19556,11.755338 -0.279889,0 -0.559778,-0.06997 -0.839667,-0.06997 -0.419834,0 -0.559778,0.349861 -0.559778,0.839667 0,0.559778 0.06997,0.839667 0.699722,0.839667 z"
         id="path11"
         inkscape:connector-curvature="0"
         style="fill:#000080;fill-opacity:1;stroke:none" />
      <path
         d="m 139.05559,64.566647 c -0.27989,8.466643 -8.39667,26.519483 -12.24515,26.519483 -1.32947,0 -1.81928,-1.2595 -1.81928,-3.848474 0,-5.457835 4.12837,-22.601037 4.12837,-22.671009 0,-0.209917 -0.13995,-0.559778 -0.41984,-0.559778 -0.27989,0 -0.62975,0 -2.09916,0.139945 -1.46942,0.139944 -2.72892,0.209916 -3.63856,0.209916 -0.62975,0 -1.32947,0 -1.60936,-0.06997 -0.27989,-0.06997 -0.41984,-0.06997 -0.55978,-0.06997 -0.34986,0 -0.55978,0.209917 -0.55978,0.839667 0,0.559778 0.20992,0.769695 0.55978,0.769695 0.27989,0 0.83967,-0.139945 1.11956,-0.139945 0.83966,0 1.2595,0.489806 1.2595,1.959223 0,5.807697 -3.07878,22.461093 -3.07878,24.770177 0,2.029195 0.41983,3.778502 2.30908,3.778502 6.08759,0 13.22476,-14.27434 14.48426,-16.933285 l 0.13994,0.139944 c -0.62975,5.177947 -1.7493,10.775727 -1.7493,16.16359 0,0.419834 0.07,0.629751 0.34986,0.629751 0.27989,0 6.64736,-1.679334 9.09639,-1.679334 0.76969,0 0.83967,-0.349862 0.83967,-0.979612 0,-0.279889 -0.20992,-0.62975 -0.55978,-0.62975 -0.7697,0 -0.97961,0.209916 -1.95922,0.209916 -2.30909,0 -2.93884,-2.239112 -2.93884,-6.577391 0,-8.186753 3.00881,-20.431897 3.42864,-22.181204 z"
         id="path13"
         inkscape:connector-curvature="0"
         style="fill:#000080;fill-opacity:1;stroke:none" />
      <path
         d="m 160.35847,96.194105 c 7.13717,0 13.08481,-5.527808 13.08481,-10.985644 0,-8.046809 -12.595,-7.417058 -12.595,-13.854505 0,-2.239112 1.7493,-4.688141 5.31789,-4.688141 3.35867,0 5.87767,1.679334 5.87767,3.148751 0,0.839667 -0.62975,1.609362 -0.62975,2.099168 0,0.279889 0.55978,0.419833 0.97961,0.419833 0.4898,0 0.34986,-0.699722 0.4898,-1.189528 0.41984,-2.449029 2.72892,-5.947642 2.72892,-6.577392 0,-0.559778 -0.83966,-0.559778 -3.42864,-0.559778 -7.62697,0 -16.02364,3.008807 -16.02364,10.705755 0,2.728917 1.11955,3.848473 3.42864,5.457835 4.2683,2.79889 9.37628,4.268307 9.37628,8.536615 0,3.008806 -2.72892,4.828085 -5.59778,4.828085 -3.70853,0 -8.25673,-2.588973 -8.25673,-4.548196 0,-0.839667 0.69973,-2.938835 0.69973,-3.358668 0,-0.419834 -0.20992,-0.489806 -0.69973,-0.489806 -0.90964,0 -0.90964,0.559778 -0.90964,1.469417 0,3.008807 -2.23911,6.647364 -2.23911,7.13717 0,0.979611 4.75811,2.449029 8.39667,2.449029 z"
         id="path15"
         inkscape:connector-curvature="0"
         style="fill:#000080;fill-opacity:1;stroke:none" />
    </g>
  </g>
</svg>
